<svg xmlns="http://www.w3.org/2000/svg" width="676" height="676" viewBox="0 0 676 676" version="1.1">
	<filter id="thicken">
		<feMorphology operator="dilate" radius="4"/>
	</filter>
	<path filter="url(#thicken)" d="M 324.636 65.065 C 271.538 69.771, 223.695 105.429, 210.337 150.255 L 208.920 155.009 192.710 162.851 C 162.475 177.477, 153.304 188.667, 160.079 202.662 C 164.945 212.716, 177.480 220.287, 201.500 227.681 C 216.909 232.425, 217.337 234.092, 206.452 246.992 C 145.321 319.449, 141.711 419.060, 197.887 483.358 L 203.879 490.216 197.127 496.875 C 187.270 506.596, 184.500 512.766, 184.500 525 C 184.500 536.557, 187.060 543.011, 194.955 551.359 C 203.061 559.930, 211.740 563.485, 224.729 563.556 C 233.768 563.605, 235.223 563.861, 237.241 565.757 C 243.078 571.240, 257.541 574.908, 266.094 573.073 C 275.738 571.005, 285.407 564.243, 289.706 556.560 C 290.759 554.679, 290.918 554.684, 298.140 556.810 C 309.703 560.214, 324.410 562.955, 337.483 564.141 C 352.343 565.489, 351.601 565.264, 352.442 568.669 C 354.526 577.103, 364.461 587.090, 374.748 591.093 C 382.477 594.100, 396.590 594.374, 402.685 591.636 C 406.733 589.816, 406.951 589.816, 411.667 591.636 C 415.072 592.949, 419.014 593.487, 425.011 593.456 C 446.175 593.347, 462 576.823, 462 554.835 L 462 549.034 467.250 546.388 C 498.239 530.768, 524.131 501.343, 535.531 468.789 C 537.932 461.934, 538.591 460.960, 541.470 460.010 C 550.909 456.895, 556.891 446.498, 561.307 425.530 C 564.705 409.399, 564.410 373.176, 560.740 355.942 C 550.673 308.664, 523.292 268.906, 484.687 245.509 C 478.739 241.904, 477.025 240.382, 477.507 239.137 C 489.756 207.536, 485.590 165.931, 467.097 135.161 C 442.985 95.043, 398.730 68.759, 349 65.020 C 341.575 64.462, 335.050 64.067, 334.500 64.142 C 333.950 64.217, 329.511 64.632, 324.636 65.065 M 315.557 90.503 C 273.682 99.201, 243.915 124.614, 232.421 161.479 C 228.934 172.664, 228.549 173.010, 210.363 181.275 C 194.409 188.526, 185 193.557, 185 194.835 C 185 196.119, 191.447 198.887, 208.812 205.056 C 227.338 211.638, 228.861 212.466, 233.132 218.286 C 238.174 225.158, 240.248 230.818, 240.380 238.071 C 240.497 244.452, 240.376 244.785, 236.198 249.571 C 215.695 273.060, 208.118 283.579, 200.003 299.818 C 180.728 338.389, 176.971 382.538, 189.696 420.923 C 197.805 445.380, 212.838 467.521, 231.561 482.579 C 241.048 490.208, 242.761 493.243, 240.557 498.519 C 238.945 502.375, 235.312 504.537, 227.800 506.108 C 213.111 509.181, 204.971 519.058, 208.550 529.467 C 212.040 539.618, 221.768 543.427, 232.950 539.020 C 239.131 536.583, 240.750 537.107, 247.595 543.757 C 257.457 553.339, 265.185 551.277, 271.573 537.359 C 276.754 526.070, 279.845 524.973, 292.406 529.963 C 310.876 537.300, 328.539 540.846, 350.954 541.716 C 369.147 542.423, 370.015 542.872, 372 552.603 C 375.354 569.045, 388.754 575.334, 400.517 565.986 C 405.438 562.076, 407.337 562.215, 414.385 567.002 C 423.170 572.970, 430.365 571.939, 435.648 563.955 C 438.197 560.104, 438.475 558.739, 438.975 547.627 C 439.276 540.957, 440.055 534.561, 440.708 533.414 C 441.409 532.182, 445.606 529.790, 450.965 527.569 C 468.168 520.438, 484.983 507.009, 497.144 490.686 C 503.693 481.897, 510.955 467.982, 511.283 463.596 L 511.500 460.692 499.500 457.825 C 426.295 440.333, 376.057 397.491, 372.352 349.396 C 370.571 326.282, 378.630 305.570, 396.628 287 C 412.373 270.755, 423.617 266.213, 431.326 272.982 C 438.160 278.982, 436.015 287.038, 425.861 293.507 C 413.152 301.603, 404.516 312.093, 399.406 325.639 C 382.030 371.704, 434.534 421.223, 518.500 437.963 C 532.162 440.686, 534.334 439.033, 537.493 423.501 C 550.883 357.673, 519.512 289.591, 462.236 260.170 C 448.205 252.963, 447.644 251.214, 454.003 234.492 C 477.130 173.674, 436.570 107.485, 366.345 91.446 C 356.475 89.191, 324.710 88.602, 315.557 90.503 M 284.021 150.062 C 274.527 154.058, 271.252 166.397, 277.508 174.600 C 286.642 186.575, 306 180.053, 306 165 C 306 154.201, 293.833 145.932, 284.021 150.062" stroke="none" fill="#147a54" fill-rule="evenodd"/>
</svg>